<svg width="23" height="22" viewBox="0 0 23 22" fill="none" xmlns="http://www.w3.org/2000/svg">
<path fill-rule="evenodd" clip-rule="evenodd" d="M21.4791 14.193C21.9394 14.2276 22.2837 14.6299 22.2492 15.0902L22.0374 17.8864C21.8625 20.1934 19.9155 22 17.6029 22H4.67492C2.36237 22 0.415368 20.1934 0.240394 17.8864L0.0286422 15.0902C-0.00590676 14.6299 0.339583 14.2276 0.799864 14.193C1.26237 14.1763 1.66136 14.5029 1.69702 14.9643L1.90766 17.7594C2.01688 19.1993 3.23167 20.3283 4.67492 20.3283H17.6029C19.0462 20.3283 20.2621 19.1993 20.3702 17.7594L20.5819 14.9643C20.6176 14.5029 21.0266 14.1752 21.4791 14.193ZM12.5768 0C14.2518 0 15.6395 1.2552 15.8485 2.87428L18.0435 2.87525C20.3794 2.87525 22.2785 4.7799 22.2785 7.12255V10.9553C22.2785 11.2528 22.1203 11.527 21.865 11.6763C19.1142 13.2873 15.6294 14.2269 11.9746 14.3523L11.975 16.3568C11.975 16.8182 11.6005 17.1927 11.1391 17.1927C10.6777 17.1927 10.3033 16.8182 10.3033 16.3568L10.3026 14.3526C6.65144 14.2284 3.16642 13.2885 0.413473 11.6763C0.157142 11.527 0 11.2528 0 10.9553V7.1114C0 4.77545 1.90465 2.87525 4.24618 2.87525L6.4298 2.87428C6.6388 1.2552 8.02646 0 9.70146 0H12.5768ZM18.0435 4.54698H4.24618C2.82633 4.54698 1.67172 5.69712 1.67172 7.1114V10.4682C4.31719 11.9056 7.6523 12.6934 11.1236 12.695L11.1391 12.6935L11.1515 12.694L11.6822 12.6884C14.9652 12.6102 18.0971 11.8313 20.6068 10.4682V7.12255C20.6068 5.70158 19.4578 4.54698 18.0435 4.54698ZM12.5768 1.67172H9.70146C8.95103 1.67172 8.31756 2.18246 8.13043 2.87456H14.1479C13.9607 2.18246 13.3273 1.67172 12.5768 1.67172Z" fill="#282828"/>
</svg>
