<svg width="13" height="14" viewBox="0 0 13 14" fill="none" xmlns="http://www.w3.org/2000/svg">
<path d="M12.1111 13.125H11.5556V0.65625C11.5556 0.293809 11.2571 0 10.8889 0H1.55556C1.18736 0 0.888889 0.293809 0.888889 0.65625V13.125H0.333333C0.14925 13.125 0 13.2719 0 13.4531V14H12.4444V13.4531C12.4444 13.2719 12.2952 13.125 12.1111 13.125ZM3.55556 2.07812C3.55556 1.89692 3.70481 1.75 3.88889 1.75H5C5.18408 1.75 5.33333 1.89692 5.33333 2.07812V3.17188C5.33333 3.35308 5.18408 3.5 5 3.5H3.88889C3.70481 3.5 3.55556 3.35308 3.55556 3.17188V2.07812ZM3.55556 4.70312C3.55556 4.52192 3.70481 4.375 3.88889 4.375H5C5.18408 4.375 5.33333 4.52192 5.33333 4.70312V5.79688C5.33333 5.97808 5.18408 6.125 5 6.125H3.88889C3.70481 6.125 3.55556 5.97808 3.55556 5.79688V4.70312ZM5 8.75H3.88889C3.70481 8.75 3.55556 8.60308 3.55556 8.42188V7.32812C3.55556 7.14692 3.70481 7 3.88889 7H5C5.18408 7 5.33333 7.14692 5.33333 7.32812V8.42188C5.33333 8.60308 5.18408 8.75 5 8.75ZM7.11111 13.125H5.33333V10.8281C5.33333 10.6469 5.48258 10.5 5.66667 10.5H6.77778C6.96186 10.5 7.11111 10.6469 7.11111 10.8281V13.125ZM8.88889 8.42188C8.88889 8.60308 8.73964 8.75 8.55556 8.75H7.44445C7.26036 8.75 7.11111 8.60308 7.11111 8.42188V7.32812C7.11111 7.14692 7.26036 7 7.44445 7H8.55556C8.73964 7 8.88889 7.14692 8.88889 7.32812V8.42188ZM8.88889 5.79688C8.88889 5.97808 8.73964 6.125 8.55556 6.125H7.44445C7.26036 6.125 7.11111 5.97808 7.11111 5.79688V4.70312C7.11111 4.52192 7.26036 4.375 7.44445 4.375H8.55556C8.73964 4.375 8.88889 4.52192 8.88889 4.70312V5.79688ZM8.88889 3.17188C8.88889 3.35308 8.73964 3.5 8.55556 3.5H7.44445C7.26036 3.5 7.11111 3.35308 7.11111 3.17188V2.07812C7.11111 1.89692 7.26036 1.75 7.44445 1.75H8.55556C8.73964 1.75 8.88889 1.89692 8.88889 2.07812V3.17188Z" fill="#8C8C8C"/>
</svg>
