<svg width="19" height="19" viewBox="0 0 19 19" fill="none" xmlns="http://www.w3.org/2000/svg">
<path d="M0.75 3.2832H8.23314H15.7163V10.7663V18.2495H0.75V3.2832Z" stroke="#0AB4F1" stroke-width="1.5"/>
<rect x="6.3335" width="12.6664" height="12.6664" fill="white"/>
<path d="M8.33637 9.60273L7.80604 10.1331L8.8667 11.1937L9.39703 10.6634L8.33637 9.60273ZM17.2165 2.53323C17.2165 2.11902 16.8807 1.78323 16.4665 1.78323L9.71652 1.78323C9.30231 1.78323 8.96652 2.11902 8.96652 2.53323C8.96652 2.94745 9.30231 3.28323 9.71652 3.28323H15.7165V9.28323C15.7165 9.69745 16.0523 10.0332 16.4665 10.0332C16.8807 10.0332 17.2165 9.69745 17.2165 9.28323L17.2165 2.53323ZM9.39703 10.6634L16.9969 3.06356L15.9362 2.0029L8.33637 9.60273L9.39703 10.6634Z" fill="#0AB4F1"/>
</svg>
