<svg width="21" height="22" viewBox="0 0 21 22" fill="none" xmlns="http://www.w3.org/2000/svg">
<path fill-rule="evenodd" clip-rule="evenodd" d="M10.5 0.0229492C16.2899 0.0229492 21 4.7331 21 10.5229C21 16.3128 16.2899 21.0229 10.5 21.0229C4.71015 21.0229 0 16.3128 0 10.5229C0 4.7331 4.71015 0.0229492 10.5 0.0229492ZM10.5 1.55953C5.55732 1.55953 1.53659 5.58027 1.53659 10.5229C1.53659 15.4656 5.55732 19.4864 10.5 19.4864C15.4427 19.4864 19.4634 15.4656 19.4634 10.5229C19.4634 5.58027 15.4427 1.55953 10.5 1.55953Z" fill="#7D7D7D"/>
<path d="M10.6735 6.01208C11.6255 6.01208 12.3862 6.27341 12.9555 6.79608C13.5342 7.31875 13.8235 8.03275 13.8235 8.93808C13.8235 9.88075 13.5248 10.5901 12.9275 11.0661C12.3302 11.5421 11.5368 11.7801 10.5475 11.7801L10.4915 12.8861H9.10549L9.03549 10.6881H9.49749C10.4028 10.6881 11.0935 10.5667 11.5695 10.3241C12.0548 10.0814 12.2975 9.61941 12.2975 8.93808C12.2975 8.44341 12.1528 8.05608 11.8635 7.77608C11.5835 7.49608 11.1915 7.35608 10.6875 7.35608C10.1835 7.35608 9.78683 7.49141 9.49749 7.76208C9.20816 8.03275 9.06349 8.41075 9.06349 8.89608H7.56549C7.56549 8.33608 7.69149 7.83675 7.94349 7.39808C8.19549 6.95941 8.55483 6.61875 9.02149 6.37608C9.49749 6.13341 10.0482 6.01208 10.6735 6.01208ZM9.77749 15.9801C9.48816 15.9801 9.24549 15.8821 9.04949 15.6861C8.85349 15.4901 8.75549 15.2474 8.75549 14.9581C8.75549 14.6687 8.85349 14.4261 9.04949 14.2301C9.24549 14.0341 9.48816 13.9361 9.77749 13.9361C10.0575 13.9361 10.2955 14.0341 10.4915 14.2301C10.6875 14.4261 10.7855 14.6687 10.7855 14.9581C10.7855 15.2474 10.6875 15.4901 10.4915 15.6861C10.2955 15.8821 10.0575 15.9801 9.77749 15.9801Z" fill="#7D7D7D"/>
</svg>
