<svg width="21" height="21" viewBox="0 0 21 21" fill="none" xmlns="http://www.w3.org/2000/svg">
<path fill-rule="evenodd" clip-rule="evenodd" d="M11.4417 13.9555C12.6174 13.9555 13.5744 14.9056 13.5744 16.0735V19.0773C13.5744 19.3282 13.7756 19.5294 14.0334 19.5352H15.8946C17.3613 19.5352 18.5536 18.3576 18.5536 16.9104V8.39136C18.5468 7.89334 18.3095 7.42462 17.9023 7.11311L11.4642 1.97864C10.6 1.29411 9.39106 1.29411 8.52392 1.9806L2.12976 7.11116C1.70693 7.43243 1.46964 7.90115 1.46476 8.40796V16.9104C1.46476 18.3576 2.65707 19.5352 4.12378 19.5352H6.00258C6.26721 19.5352 6.48204 19.3253 6.48204 19.0675C6.48204 19.0109 6.48888 18.9542 6.5006 18.9005V16.0735C6.5006 14.9125 7.45171 13.9633 8.61864 13.9555H11.4417ZM15.8946 21H14.0158C12.9397 20.9746 12.1096 20.1299 12.1096 19.0773V16.0735C12.1096 15.7132 11.8099 15.4202 11.4417 15.4202H8.62352C8.26319 15.4222 7.96536 15.7161 7.96536 16.0735V19.0675C7.96536 19.1407 7.95559 19.211 7.93509 19.2774C7.82962 20.2442 7.0035 21 6.00258 21H4.12378C1.8495 21 0 19.1651 0 16.9104V8.40112C0.00976506 7.43048 0.457005 6.54186 1.22942 5.95693L7.61088 0.835157C9.01608 -0.27806 10.974 -0.27806 12.3762 0.833204L18.8036 5.95986C19.5584 6.53502 20.0057 7.42169 20.0184 8.38062V16.9104C20.0184 19.1651 18.1689 21 15.8946 21Z" fill="black"/>
</svg>
