<svg width="12" height="16" viewBox="0 0 12 16" fill="none" xmlns="http://www.w3.org/2000/svg">
<path d="M3.02711 1.62424C4.89984 0.536096 7.20174 0.555115 9.0569 1.67406C10.8938 2.81579 12.0103 4.85344 11.9999 7.04538C11.9571 9.22295 10.76 11.2699 9.26355 12.8522C8.39986 13.7696 7.43367 14.5809 6.38472 15.2693C6.27669 15.3318 6.15836 15.3736 6.03556 15.3927C5.91737 15.3877 5.80227 15.3528 5.70065 15.2911C4.09922 14.2566 2.69429 12.9362 1.55343 11.3933C0.598789 10.1053 0.0564296 8.54929 0 6.93651L0.0042739 6.70188C0.0822189 4.5967 1.22125 2.67351 3.02711 1.62424ZM6.77765 5.13681C6.01635 4.8132 5.13861 4.98902 4.55427 5.58216C3.96994 6.1753 3.79426 7.06877 4.10928 7.84539C4.4243 8.62201 5.16787 9.12858 5.9928 9.12859C6.53323 9.13247 7.05273 8.916 7.43555 8.52741C7.81837 8.13882 8.0327 7.61041 8.0308 7.0599C8.03367 6.2196 7.53896 5.46041 6.77765 5.13681Z" fill="#8C8C8C"/>
</svg>
