<svg width="18" height="22" viewBox="0 0 18 22" fill="none" xmlns="http://www.w3.org/2000/svg">
<path fill-rule="evenodd" clip-rule="evenodd" d="M9.11579 0.784036C12.107 0.784036 14.543 3.22004 14.543 6.21433L14.5429 7.82938C16.3614 8.46226 17.6695 10.1935 17.6695 12.2252V16.6189C17.6695 19.185 15.5829 21.2716 13.0168 21.2716H5.1894C2.6233 21.2716 0.536621 19.185 0.536621 16.6189V12.2252C0.536621 10.1939 1.84428 8.46292 3.66225 7.82974L3.66296 6.21433C3.6691 4.73921 4.23969 3.37779 5.2692 2.3575C6.29974 1.33618 7.66013 0.74511 9.11579 0.784036ZM13.0168 9.10905H5.1894C3.47047 9.10905 2.07321 10.5063 2.07321 12.2252V16.6189C2.07321 18.3378 3.47047 19.7351 5.1894 19.7351H13.0168C14.7347 19.7351 16.133 18.3378 16.133 16.6189V12.2252C16.133 10.5063 14.7347 9.10905 13.0168 9.10905ZM9.10288 12.516C9.52698 12.516 9.87117 12.8602 9.87117 13.2843V15.5594C9.87117 15.9835 9.52698 16.3277 9.10288 16.3277C8.67878 16.3277 8.33459 15.9835 8.33459 15.5594V13.2843C8.33459 12.8602 8.67878 12.516 9.10288 12.516ZM9.11271 2.32062H9.09632C8.05862 2.32062 7.08647 2.72013 6.35198 3.44848C5.61237 4.17989 5.20364 5.15613 5.19954 6.19691L5.19862 7.57189H13.0055L13.0064 6.21433C13.0064 4.06721 11.2598 2.32062 9.11271 2.32062Z" fill="#7D7D7D"/>
</svg>
