<svg width="22" height="25" viewBox="0 0 22 25" fill="none" xmlns="http://www.w3.org/2000/svg">
<path d="M20.3369 12.0567C19.4238 10.9904 19.0088 10.0663 19.0088 8.49645V7.96266C19.0088 5.91692 18.538 4.59883 17.5143 3.28074C15.9366 1.23374 13.2805 0 10.6803 0H10.5697C8.02419 0 5.45133 1.17709 3.84624 3.141C2.76666 4.48553 2.24116 5.86027 2.24116 7.96266V8.49645C2.24116 10.0663 1.85355 10.9904 0.91311 12.0567C0.221134 12.8422 0 13.8519 0 14.9446C0 16.0386 0.359032 17.0747 1.07958 17.9169C2.02002 18.9266 3.34807 19.5712 4.70469 19.6832C6.66881 19.9073 8.63293 19.9916 10.6256 19.9916C12.6171 19.9916 14.5812 19.8506 16.5466 19.6832C17.9019 19.5712 19.23 18.9266 20.1704 17.9169C20.8897 17.0747 21.25 16.0386 21.25 14.9446C21.25 13.8519 21.0289 12.8422 20.3369 12.0567Z" fill="black"/>
<path opacity="0.4" d="M13.1359 21.5356C12.5111 21.4022 8.70333 21.4022 8.07844 21.5356C7.54423 21.659 6.96655 21.946 6.96655 22.5755C6.99761 23.176 7.34919 23.706 7.83618 24.0421L7.83494 24.0434C8.4648 24.5344 9.20398 24.8466 9.97795 24.9586C10.3904 25.0153 10.8103 25.0128 11.2377 24.9586C12.0104 24.8466 12.7496 24.5344 13.3794 24.0434L13.3782 24.0421C13.8652 23.706 14.2168 23.176 14.2478 22.5755C14.2478 21.946 13.6701 21.659 13.1359 21.5356Z" fill="black"/>
</svg>
