<svg width="13" height="12" viewBox="0 0 13 12" fill="none" xmlns="http://www.w3.org/2000/svg">
<path fill-rule="evenodd" clip-rule="evenodd" d="M11.8207 10.9943C12.0817 10.9943 12.2936 11.2061 12.2936 11.4671C12.2936 11.7281 12.0817 11.9399 11.8207 11.9399H7.24828C6.98728 11.9399 6.77546 11.7281 6.77546 11.4671C6.77546 11.2061 6.98728 10.9943 7.24828 10.9943H11.8207ZM8.89923 0.412072C8.93075 0.436658 9.98545 1.25621 9.98545 1.25621C10.3688 1.48442 10.6682 1.89231 10.7817 2.37521C10.8945 2.85307 10.8126 3.34606 10.5497 3.76277C10.5479 3.76555 10.5462 3.7683 10.5401 3.77647L10.5353 3.78278C10.4927 3.83902 10.3072 4.07357 9.37097 5.24653C9.36228 5.2619 9.35242 5.2763 9.34166 5.29029C9.32588 5.31091 9.3087 5.32987 9.29036 5.34713C9.2265 5.42753 9.15905 5.51201 9.08814 5.60083L8.94445 5.7808C8.64796 6.1521 8.29629 6.5924 7.87907 7.11462L7.66495 7.38263C6.85948 8.39077 5.82791 9.68157 4.50644 11.3348C4.21708 11.6954 3.78335 11.9053 3.31746 11.911L1.02335 11.94H1.01705C0.798289 11.94 0.607901 11.79 0.556837 11.5762L0.04052 9.38804C-0.0660216 8.93477 0.0398896 8.467 0.330515 8.10387L6.26911 0.676219C6.27163 0.673698 6.27352 0.670546 6.27604 0.668024C6.92727 -0.110549 8.1049 -0.225287 8.89923 0.412072ZM5.60699 3.01784L1.06874 8.69458C0.960939 8.82949 0.921222 9.00349 0.960939 9.17055L1.39026 10.9893L3.30611 10.9654C3.48831 10.9635 3.65663 10.8821 3.76822 10.7435C4.34284 10.0245 5.06503 9.12089 5.80754 8.19174L6.07024 7.863L6.33339 7.5337C7.02974 6.66225 7.71768 5.8012 8.2933 5.0805L5.60699 3.01784ZM7.00418 1.27134L6.1977 2.27898L8.88379 4.34105C9.40081 3.69346 9.74093 3.26694 9.77237 3.22628C9.87576 3.05859 9.91611 2.82155 9.86189 2.59334C9.80641 2.35945 9.66078 2.16087 9.45085 2.03415C9.40609 2.00326 8.34383 1.17867 8.31105 1.15282C7.91136 0.832564 7.32822 0.888042 7.00418 1.27134Z" fill="#0AB4F1"/>
</svg>
