<svg width="25" height="25" viewBox="0 0 25 25" fill="none" xmlns="http://www.w3.org/2000/svg">
<path fill-rule="evenodd" clip-rule="evenodd" d="M11.3307 0C14.3083 0 16.7307 2.42245 16.7307 5.39998V6.53452C16.7307 7.03848 16.3217 7.4475 15.8177 7.4475C15.3137 7.4475 14.9047 7.03848 14.9047 6.53452V5.39998C14.9047 3.42794 13.3015 1.82596 11.3307 1.82596H5.39633C3.42794 1.82596 1.82596 3.42794 1.82596 5.39998V18.9474C1.82596 20.9182 3.42794 22.5202 5.39633 22.5202H11.3441C13.3064 22.5202 14.9047 20.9231 14.9047 18.9608V17.8129C14.9047 17.3089 15.3137 16.8999 15.8177 16.8999C16.3217 16.8999 16.7307 17.3089 16.7307 17.8129V18.9608C16.7307 21.931 14.3131 24.3462 11.3441 24.3462H5.39633C2.42123 24.3462 0 21.925 0 18.9474V5.39998C0 2.42245 2.42123 0 5.39633 0H11.3307ZM21.1667 7.97824L24.731 11.5267C24.7628 11.5583 24.7912 11.5911 24.8173 11.6258L24.731 11.5267C24.7741 11.5692 24.8125 11.6157 24.8457 11.6652C24.8604 11.6877 24.8745 11.7109 24.8876 11.7348C24.8982 11.7534 24.908 11.7729 24.9171 11.7926C24.9248 11.8101 24.9321 11.8276 24.939 11.8454C24.9482 11.8685 24.9562 11.8923 24.9632 11.9164C24.9685 11.9354 24.9734 11.9543 24.9777 11.9735C24.9832 11.9967 24.9874 12.0201 24.9908 12.0437C24.9927 12.059 24.9946 12.0751 24.996 12.0912C24.9988 12.119 25 12.146 25 12.1731L24.9938 12.2486L24.9913 12.2969C24.991 12.299 24.9907 12.3011 24.9904 12.3031L25 12.1731C25 12.2407 24.9925 12.3076 24.978 12.3726C24.9734 12.3919 24.9685 12.4108 24.9631 12.4295C24.9562 12.4539 24.9482 12.4777 24.9391 12.5011C24.9321 12.5186 24.9248 12.5361 24.9169 12.5533C24.908 12.5733 24.8982 12.5928 24.8878 12.6119C24.8745 12.6353 24.8604 12.6585 24.8453 12.681C24.8367 12.6944 24.8274 12.7075 24.8176 12.7205C24.7886 12.7586 24.7571 12.7945 24.7229 12.8277L21.1667 16.3692C20.989 16.5469 20.7552 16.6357 20.5227 16.6357C20.289 16.6357 20.0541 16.5469 19.8763 16.3667C19.5209 16.0088 19.5221 15.4318 19.8788 15.0764L21.875 13.0861H9.42903C8.92507 13.0861 8.51605 12.6771 8.51605 12.1731C8.51605 11.6691 8.92507 11.2601 9.42903 11.2601H21.8775L19.8788 9.27103C19.5221 8.91557 19.5197 8.33857 19.8763 7.98068C20.2318 7.62279 20.8088 7.62279 21.1667 7.97824Z" fill="#0AB4F1"/>
</svg>
