<svg width="19" height="22" viewBox="0 0 19 22" fill="none" xmlns="http://www.w3.org/2000/svg">
<path fill-rule="evenodd" clip-rule="evenodd" d="M11.8028 0.871094C11.8468 0.871094 11.8899 0.874798 11.9319 0.881912L12.0721 0.882772C12.2811 0.882772 12.4808 0.967796 12.6263 1.11838L17.8148 6.52409C17.9521 6.66648 18.0291 6.85804 18.0291 7.05575V16.4453C18.0474 19.0155 16.0457 21.1155 13.4714 21.22L5.25684 21.221H5.14518C2.63548 21.1643 0.622665 19.1346 0.561344 16.6493L0.561035 5.47102C0.62045 2.9295 2.71943 0.882772 5.2425 0.882772L11.6737 0.881912C11.7157 0.874798 11.7588 0.871094 11.8028 0.871094ZM11.0344 2.41895L5.24455 2.41936C3.54713 2.41936 2.13757 3.79409 2.09762 5.48945V16.4453C2.05972 18.2001 3.44264 19.6455 5.18001 19.6844H13.4407C15.1504 19.6137 16.5046 18.1929 16.4924 16.4515L16.4924 8.02441L14.4334 8.02544C12.5588 8.02031 11.0345 6.49192 11.0345 4.61934L11.0344 2.41895ZM11.6114 13.7867C12.0355 13.7867 12.3797 14.1309 12.3797 14.555C12.3797 14.9791 12.0355 15.3233 11.6114 15.3233H6.07973C5.65563 15.3233 5.31144 14.9791 5.31144 14.555C5.31144 14.1309 5.65563 13.7867 6.07973 13.7867H11.6114ZM9.51666 9.9432C9.94076 9.9432 10.285 10.2874 10.285 10.7115C10.285 11.1356 9.94076 11.4798 9.51666 11.4798H6.07881C5.65471 11.4798 5.31052 11.1356 5.31052 10.7115C5.31052 10.2874 5.65471 9.9432 6.07881 9.9432H9.51666ZM12.571 3.28046L12.5711 4.61934C12.5711 5.64783 13.408 6.48578 14.4355 6.48885L15.6503 6.48783L12.571 3.28046Z" fill="#7D7D7D"/>
</svg>
