<svg width="12" height="13" viewBox="0 0 12 13" fill="none" xmlns="http://www.w3.org/2000/svg">
<path d="M1 3.22266H2.11111H11" stroke="#0AB4F1" stroke-linecap="round" stroke-linejoin="round"/>
<path d="M3.77799 3.22222V2.11111C3.77799 1.81643 3.89506 1.53381 4.10343 1.32544C4.31181 1.11706 4.59442 1 4.88911 1H7.11133C7.40601 1 7.68863 1.11706 7.897 1.32544C8.10538 1.53381 8.22244 1.81643 8.22244 2.11111V3.22222M9.88911 3.22222V11C9.88911 11.2947 9.77204 11.5773 9.56367 11.7857C9.35529 11.994 9.07268 12.1111 8.77799 12.1111H3.22244C2.92775 12.1111 2.64514 11.994 2.43676 11.7857C2.22839 11.5773 2.11133 11.2947 2.11133 11V3.22222H9.88911Z" stroke="#0AB4F1" stroke-linecap="round" stroke-linejoin="round"/>
<path d="M4.88867 6V9.33333" stroke="#0AB4F1" stroke-linecap="round" stroke-linejoin="round"/>
<path d="M7.11133 6V9.33333" stroke="#0AB4F1" stroke-linecap="round" stroke-linejoin="round"/>
</svg>
