<svg width="15" height="20" viewBox="0 0 15 20" fill="none" xmlns="http://www.w3.org/2000/svg">
<path fill-rule="evenodd" clip-rule="evenodd" d="M10.2318 0C13.1978 0 14.8995 1.58228 14.8995 4.33877V18.0374C14.8995 18.6122 14.6249 19.1296 14.1632 19.4189C13.7033 19.7092 13.1489 19.7148 12.6837 19.4321L7.47204 16.2591L2.21232 19.4387C1.98497 19.5763 1.73575 19.646 1.48566 19.646C1.22771 19.646 0.969748 19.5716 0.735399 19.4227C0.274572 19.1334 0 18.616 0 18.0421V4.16631C0 1.51819 1.70252 0 4.67123 0H10.2318ZM10.2318 1.41359H4.67123C2.4423 1.41359 1.31165 2.33902 1.31165 4.16631V18.0421C1.31165 18.1307 1.35887 18.1787 1.39822 18.2032C1.43757 18.2296 1.49966 18.2485 1.57136 18.2051L7.152 14.8314C7.35137 14.7117 7.59534 14.7107 7.79558 14.8323L13.3281 18.2004C13.4007 18.2456 13.4628 18.2249 13.5021 18.1995C13.5415 18.174 13.5878 18.126 13.5878 18.0374L13.5875 4.23138C13.5809 3.42029 13.4353 1.41359 10.2318 1.41359ZM10.6155 6.34088C10.9775 6.34088 11.2713 6.65753 11.2713 7.04768C11.2713 7.43783 10.9775 7.75447 10.6155 7.75447H4.21635C3.85433 7.75447 3.56052 7.43783 3.56052 7.04768C3.56052 6.65753 3.85433 6.34088 4.21635 6.34088H10.6155Z" fill="white"/>
</svg>
