<svg width="25" height="24" viewBox="0 0 25 24" fill="none" xmlns="http://www.w3.org/2000/svg">
<path opacity="0.4" d="M0 11.0049C0.0606119 13.8391 0.230325 18.6868 0.25457 19.2214C0.340639 20.3646 0.778256 21.5198 1.45953 22.3345C2.4075 23.4776 3.57489 23.9879 5.20292 23.9879C7.45284 24.0001 9.93307 24.0001 12.3418 24.0001C14.7602 24.0001 17.1071 24.0001 19.0891 23.9879C20.6941 23.9879 21.8979 23.4643 22.8337 22.3345C23.515 21.5198 23.9526 20.3524 24.0144 19.2214C24.0387 18.7717 24.1599 13.5094 24.2326 11.0049H0Z" fill="black"/>
<path d="M11.207 16.2241V17.7928C11.207 18.2946 11.6143 18.7019 12.1162 18.7019C12.6181 18.7019 13.0254 18.2946 13.0254 17.7928V16.2241C13.0254 15.7223 12.6181 15.3149 12.1162 15.3149C11.6143 15.3149 11.207 15.7223 11.207 16.2241Z" fill="black"/>
<path d="M13.6813 0C15.5009 0 16.9931 1.36862 17.221 3.12878H19.6176C22.1621 3.12878 24.2326 5.19929 24.2326 7.74498V11.9466C24.2326 12.2521 24.0787 12.537 23.8253 12.7055C21.3257 14.3602 18.3581 15.4621 15.2451 15.8924C15.2027 15.8985 15.1615 15.9009 15.1202 15.9009C14.7093 15.9009 14.342 15.6233 14.2389 15.216C13.9941 14.2511 13.1176 13.5758 12.1103 13.5758C11.0895 13.5758 10.2228 14.2365 9.95368 15.2209C9.83246 15.6609 9.40939 15.9421 8.95116 15.8815C5.85874 15.45 2.90331 14.3529 0.408524 12.7055C0.152742 12.5382 0 12.2521 0 11.9466V7.74498C0 5.19929 2.07535 3.12878 4.62711 3.12878H7.01158C7.23948 1.36862 8.73053 0 10.5513 0H13.6813ZM13.6813 1.81836H10.5513C9.73548 1.81836 9.0542 2.37599 8.85054 3.12878H15.3809C15.1772 2.37599 14.4959 1.81836 13.6813 1.81836Z" fill="black"/>
</svg>
