<svg id="Layer_1" data-name="Layer 1" xmlns="http://www.w3.org/2000/svg" viewBox="0 0 776.17 183.6"><defs><style>.cls-1{fill:#2ab1e6;}.cls-2,.cls-3{fill:none;stroke-miterlimit:10;}.cls-2{stroke:#212221;}.cls-3{stroke:#2ab1e6;stroke-linecap:round;stroke-width:5.67px;}</style></defs><title>Edaiva logo edit</title><polygon points="167.38 52.87 167.38 78.77 205.69 78.77 205.69 85.33 167.38 85.33 167.38 113.6 207.87 113.6 207.87 120.16 161.36 120.16 161.36 46.32 207.96 46.32 207.96 52.87 167.38 52.87"/><path d="M269.36,46.54h25.12c20.31,0,35.62,14,35.62,35.94s-15,37.29-35.82,37.29H269.36Zm6.09,66.64h18c18.4,0,28.71-13,28.71-30.44,0-15.36-9.47-29.61-28.69-29.61h-18Z"/><path d="M395.67,102.33l-6.35,17.44h-7.51l27.91-73.23h9.06l27.66,73.23h-8.05l-6.58-17.6ZM430,96.54c-7.63-20.63-14.27-38.18-15.79-43.39h-.11c-1.78,5.84-10.44,25.74-16.6,43.39Z"/><path d="M693.51,103l-6.35,17.45h-7.52l27.91-73.23h9.07l27.66,73.23h-8.06l-6.57-17.61Zm34.28-5.79C720.17,76.61,713.52,59.06,712,53.84h-.1c-1.79,5.85-10.45,25.75-16.6,43.39Z"/><path d="M511,46.54v73.23h-6.1V46.54Z"/><path d="M596.9,119.77,567.17,46.54h8l15,37.49c3.94,10.93,8.86,22.13,11.15,28.94h.21c2.21-5.63,7.57-17.85,11.55-28.56l14.15-37.87h7.8l-29.33,73.23Z"/><path class="cls-1" d="M405.25,164.73c0,4.92-1.59,7.16-6.28,7.16a13.82,13.82,0,0,1-2.89-.27V168a19.47,19.47,0,0,0,2.11.12c2.12,0,2.44-1.41,2.44-3V150.2h4.62Z"/><path class="cls-1" d="M443.51,160.82c0,6-3.57,11.07-10.51,11.07-6.71,0-10.22-4.88-10.22-11s3.88-11,10.52-11C439.55,149.89,443.51,154.28,443.51,160.82Zm-16,0c0,4.17,1.83,7.33,5.62,7.33,4.11,0,5.57-3.44,5.57-7.25,0-4-1.66-7.23-5.64-7.23S427.55,156.64,427.55,160.8Z"/><path class="cls-1" d="M461.19,150.2h9.34c5.16,0,7.12,2.7,7.12,5.47a4.87,4.87,0,0,1-2.72,4.64,5.09,5.09,0,0,1,3.33,4.87c0,3.66-2.87,6.4-7.42,6.4h-9.65Zm8.81,8.44c2.19,0,3.1-1,3.1-2.49s-1.19-2.38-3-2.38h-4.4v4.87ZM465.73,168h4.17c2.49,0,3.63-1,3.63-3,0-1.72-1.12-2.82-3.66-2.82h-4.14Z"/><path class="cls-1" d="M499.16,165.31c.49,2.15,2,3.09,4.5,3.09s3.53-1,3.53-2.54c0-1.74-1-2.49-4.69-3.34-5.82-1.37-7.26-3.48-7.26-6.37,0-3.73,2.79-6.26,7.85-6.26,5.68,0,7.94,3.05,8.24,6.18h-4.65c-.23-1.31-.95-2.74-3.71-2.74-1.88,0-3,.77-3,2.29s.91,2.09,4.36,2.89c6.22,1.46,7.59,3.78,7.59,6.79,0,3.91-3,6.58-8.61,6.58-5.42,0-8.28-2.67-8.79-6.57Z"/><line class="cls-2" x1="161.88" y1="161.54" x2="374.1" y2="161.54"/><line class="cls-2" x1="531.55" y1="161.54" x2="744.77" y2="161.54"/><polyline class="cls-3" points="38.73 115.9 31.02 115.9 31.02 20.09 97.32 20.09 115.44 38.21 48.98 38.21 48.98 133.99 115.44 133.99 97.34 115.9 59.32 115.9"/><polyline class="cls-3" points="59.2 68.41 67.66 68.42 84.94 85.69 48.98 85.4"/><line class="cls-3" x1="38.48" y1="68.41" x2="31.02" y2="68.41"/></svg>